# File created by Blade
# Date/Time:  Fri Jan 16 15:45:56 2015
#---------------------------------------------------------
:version 1.10
:name HOM
:units
  mass 1.0
  length 1.000000
  angle deg
:documentation
     Acclaim Skeleton File
:root
   axis xyz
   order TX TY TZ RX RY RZ
   position 0.000000 0.000000 0.000000
   orientation 0 0 0
:bonedata
   begin
      id 1
      name Spine_dum
      direction 0.000000 1.000000 0.000000
      length 7.170412
      axis 0.0 0.0 0.0 xyz
   end
   begin
      id 2
      name LeftUpLeg_dum
      direction 1.000000 0.000000 0.000000
      length 4.318350
      axis 0.0 0.0 0.0 xyz
   end
   begin
      id 3
      name RightUpLeg_dum
      direction -1.000000 0.000000 0.000000
      length 4.318350
      axis 0.0 0.0 0.0 xyz
   end
   begin
      id 4
      name Spine
      direction 0.000000 1.000000 0.000000
      length 0.000000
      axis 0.0 0.0 0.0 xyz
      dof rx ry rz
   end
   begin
      id 5
      name Spine_dum1
      direction 0.000000 1.000000 0.000000
      length 14.276153
      axis 0.0 0.0 0.0 xyz
   end
   begin
      id 6
      name Spine_dum2
      direction 0.000000 1.000000 0.000000
      length 10.718243
      axis 0.0 0.0 0.0 xyz
   end
   begin
      id 7
      name Spine_dum3
      direction 0.000000 1.000000 0.000000
      length 10.718243
      axis 0.0 0.0 0.0 xyz
   end
   begin
      id 8
      name Head
      direction 0.000000 1.000000 0.000000
      length 4.527550
      axis 0.0 0.0 0.0 xyz
      dof rx ry rz
   end
   begin
      id 9
      name LeftShoulder
      direction 1.000000 0.000000 0.000000
      length 7.058872
      axis 0.0 0.0 -90.0 xyz
      dof rx ry rz
   end
   begin
      id 10
      name LeftArm
      direction 1.000000 0.000000 0.000000
      length 10.955525
      axis 0.0 0.0 -90.0 xyz
      dof rx ry rz
   end
   begin
      id 11
      name LeftForeArm
      direction 1.000000 0.000000 0.000000
      length 8.193716
      axis 0.0 0.0 -90.0 xyz
      dof ry rz rx
   end
   begin
      id 12
      name LeftHand
      direction 0.000000 0.000000 0.000000
      length 0.000000
      axis 0.0 0.0 -90.0 xyz
      dof rx ry rz
   end
   begin
      id 13
      name LeftHand_dum1
      direction 0.000000 0.000000 0.000000
      length 0.000000
      axis 0.0 0.0 -90.0 xyz
   end
   begin
      id 14
      name LeftHand_dum2
      direction 1.000000 0.000000 0.000000
      length 3.937000
      axis 0.0 0.0 -90.0 xyz
   end
   begin
      id 15
      name LeftHandThumb1
      direction 0.000000 0.000000 1.000000
      length 3.937000
      axis 0.0 0.0 -90.0 xyz
      dof rx rz ry
   end
   begin
      id 16
      name RightShoulder
      direction -1.000000 0.000000 0.000000
      length 7.058872
      axis 0.0 0.0 90.0 xyz
      dof rx ry rz
   end
   begin
      id 17
      name RightArm
      direction -1.000000 0.000000 0.000000
      length 10.955525
      axis 0.0 0.0 90.0 xyz
      dof rx ry rz
   end
   begin
      id 18
      name RightForeArm
      direction -1.000000 0.000000 0.000000
      length 8.193716
      axis 0.0 0.0 90.0 xyz
      dof ry rz rx
   end
   begin
      id 19
      name RightHand
      direction 0.000000 0.000000 0.000000
      length 0.000000
      axis 0.0 0.0 90.0 xyz
      dof rx ry rz
   end
   begin
      id 20
      name RightHand_dum1
      direction 0.000000 0.000000 0.000000
      length 0.000000
      axis 0.0 0.0 90.0 xyz
   end
   begin
      id 21
      name RightHand_dum2
      direction -1.000000 0.000000 0.000000
      length 3.937000
      axis 0.0 0.0 90.0 xyz
   end
   begin
      id 22
      name RightHandThumb1
      direction 0.000000 0.000000 1.000000
      length 3.937000
      axis 0.0 0.0 90.0 xyz
      dof rx rz ry
   end
   begin
      id 23
      name LeftUpLeg
      direction 0.000000 -1.000000 0.000000
      length 17.323638
      axis 0.0 0.0 0.0 xyz
      dof rx ry rz
   end
   begin
      id 24
      name LeftLeg
      direction 0.000000 -1.000000 0.000000
      length 16.270368
      axis 0.0 0.0 0.0 xyz
      dof rx ry rz
   end
   begin
      id 25
      name LeftFoot
      direction 0.000000 -0.258819 0.965926
      length 4.922846
      axis 15.0 0.0 0.0 xyz
      dof rx ry rz
   end
   begin
      id 26
      name LeftToeBase
      direction 0.000000 0.000000 1.000000
      length 2.952750
      axis 0.0 0.0 0.0 xyz
      dof rx ry rz
   end
   begin
      id 27
      name RightUpLeg
      direction 0.000000 -1.000000 0.000000
      length 17.323638
      axis 0.0 0.0 0.0 xyz
      dof rx ry rz
   end
   begin
      id 28
      name RightLeg
      direction 0.000000 -1.000000 0.000000
      length 16.270368
      axis 0.0 0.0 0.0 xyz
      dof rx ry rz
   end
   begin
      id 29
      name RightFoot
      direction 0.000000 -0.258819 0.965926
      length 4.922846
      axis 15.0 0.0 0.0 xyz
      dof rx ry rz
   end
   begin
      id 30
      name RightToeBase
      direction 0.000000 0.000000 1.000000
      length 2.952750
      axis 0.0 0.0 0.0 xyz
      dof rx ry rz
   end
:hierarchy
   begin
      root Spine_dum LeftUpLeg_dum RightUpLeg_dum
      Spine_dum Spine
      LeftUpLeg_dum LeftUpLeg
      RightUpLeg_dum RightUpLeg
      Spine Spine_dum1 Spine_dum2 Spine_dum3
      Spine_dum1 Head
      Spine_dum2 LeftShoulder
      Spine_dum3 RightShoulder
      LeftShoulder LeftArm
      LeftArm LeftForeArm
      LeftForeArm LeftHand
      LeftHand LeftHand_dum1 LeftHand_dum2
      LeftHand_dum1 LeftHandThumb1
      RightShoulder RightArm
      RightArm RightForeArm
      RightForeArm RightHand
      RightHand RightHand_dum1 RightHand_dum2
      RightHand_dum1 RightHandThumb1
      LeftUpLeg LeftLeg
      LeftLeg LeftFoot
      LeftFoot LeftToeBase
      RightUpLeg RightLeg
      RightLeg RightFoot
      RightFoot RightToeBase
   end

# File created by Blade
# Date/Time:  Fri Jan 16 15:45:48 2015
# Frame Rate: 120.000 fps
#------------------------------------------------------
:FULLY-SPECIFIED
:DEGREES
1378
root -5.490564 35.375458 -10.443403 -0.275952 -0.646938 -4.141214
Spine -4.839885 -3.065747 3.053401
Head -2.077264 -5.033194 -2.366314
LeftShoulder -20.078212 10.540844 -16.056547
LeftArm 20.037933 17.971183 -66.983645
LeftForeArm 14.524357 0.000000 13.712880
LeftHand 2.938564 -0.000000 -9.705247
LeftHandThumb1 -26.253704 0.000000 33.147579
RightShoulder -6.967493 19.028884 -49.272864
RightArm 26.803792 0.267791 -13.879145
RightForeArm -19.699890 -0.000000 75.967647
RightHand 8.004877 -0.000000 8.489081
RightHandThumb1 -24.326973 -0.000000 -32.862282
LeftUpLeg 8.070189 12.805054 5.373359
LeftLeg -8.614328 -0.000000 0.000000
LeftFoot -13.037923 23.510605 -10.969357
LeftToeBase 21.425754 -0.000000 -0.000000
RightUpLeg 6.729116 -8.957230 0.734295
RightLeg -4.284656 -0.000000 0.000000
RightFoot -4.893185 -25.549623 7.386202
RightToeBase 12.024022 -0.000000 -0.000000
1379
root -5.492483 35.375502 -10.446234 -0.281668 -0.610028 -4.145375
Spine -4.835167 -3.128074 3.027180
Head -2.110841 -5.087546 -2.350989
LeftShoulder -20.078175 10.556753 -16.085224
LeftArm 20.007097 17.888687 -66.975229
LeftForeArm 14.378038 -0.000000 13.697467
LeftHand 2.894972 -0.000000 -9.747674
LeftHandThumb1 -26.253704 0.000000 33.147579
RightShoulder -6.886602 18.962037 -49.229090
RightArm 26.998088 -0.294259 -13.773247
RightForeArm -20.378961 -0.000000 77.270309
RightHand 8.108443 -0.000000 8.599016
RightHandThumb1 -24.326973 -0.000000 -32.862282
LeftUpLeg 8.068831 12.790308 5.382136
LeftLeg -8.626402 -0.000000 0.000000
LeftFoot -13.018943 23.488254 -10.958695
LeftToeBase 21.423415 -0.000000 -0.000000
RightUpLeg 6.735539 -8.965775 0.740611
RightLeg -4.283937 -0.000000 0.000000
RightFoot -4.900512 -25.555476 7.405087
RightToeBase 11.997026 -0.000000 -0.000000
1380
root -5.494651 35.375000 -10.447858 -0.293322 -0.575730 -4.148869
Spine -4.820047 -3.208555 2.987575
Head -2.153216 -5.116008 -2.304497
LeftShoulder -20.103154 10.555630 -16.086728
LeftArm 19.976570 17.828796 -66.982794
LeftForeArm 14.395503 -0.000000 13.672538
LeftHand 2.666579 -0.000000 -10.070977
LeftHandThumb1 -26.253704 0.000000 33.147579
RightShoulder -6.728830 18.909697 -49.084570
RightArm 27.122352 -0.832157 -13.818839
RightForeArm -21.026911 -0.000000 78.545502
RightHand 8.030831 -0.000000 8.700537
RightHandThumb1 -24.326973 -0.000000 -32.862282
LeftUpLeg 8.072859 12.779813 5.389813
LeftLeg -8.632833 -0.000000 0.000000
LeftFoot -13.000258 23.475190 -10.927309
LeftToeBase 21.411158 -0.000000 -0.000000
RightUpLeg 6.749266 -8.985282 0.744300
RightLeg -4.283726 -0.000000 0.000000
RightFoot -4.916249 -25.551558 7.486495
RightToeBase 11.945394 -0.000000 -0.000000
1381
root -5.497503 35.375081 -10.450327 -0.307159 -0.540301 -4.149247
Spine -4.797136 -3.276370 2.956084
Head -2.198126 -5.167579 -2.292798
LeftShoulder -20.113797 10.561703 -16.091093
LeftArm 19.949535 17.745268 -66.990022
LeftForeArm 14.443755 -0.000000 13.665899
LeftHand 2.633479 -0.000000 -9.795800
LeftHandThumb1 -26.253704 0.000000 33.147579
RightShoulder -6.673240 18.830134 -49.035132
RightArm 27.354968 -1.278931 -13.708606
RightForeArm -21.637322 -0.000000 79.644828
RightHand 7.996783 0.000000 8.733281
RightHandThumb1 -24.326973 -0.000000 -32.862282
LeftUpLeg 8.077864 12.747032 5.394810
LeftLeg -8.638026 -0.000000 0.000000
LeftFoot -12.995372 23.474274 -10.927540
LeftToeBase 21.439347 -0.000000 -0.000000
RightUpLeg 6.765131 -8.991698 0.750850
RightLeg -4.286696 -0.000000 0.000000
RightFoot -4.920589 -25.588286 7.450426
RightToeBase 11.977692 -0.000000 -0.000000
1382
root -5.499518 35.375617 -10.452637 -0.324497 -0.518332 -4.149470
Spine -4.761377 -3.334316 2.932431
Head -2.277180 -5.186626 -2.298716
LeftShoulder -20.125919 10.593466 -16.105240
LeftArm 19.966040 17.700423 -66.970388
LeftForeArm 14.014185 -0.000000 13.623953
LeftHand 2.914524 -0.000000 -9.438252
LeftHandThumb1 -26.253704 0.000000 33.147579
RightShoulder -6.642512 18.837028 -48.994275
RightArm 27.613312 -1.744168 -13.521605
RightForeArm -22.439999 -0.000000 80.552786
RightHand 8.075696 0.000000 8.580503
RightHandThumb1 -24.326973 -0.000000 -32.862282
LeftUpLeg 8.087515 12.736564 5.400721
LeftLeg -8.642444 -0.000000 0.000000
LeftFoot -12.988753 23.467041 -10.934374
LeftToeBase 21.458580 -0.000000 -0.000000
RightUpLeg 6.783667 -8.972962 0.752916
RightLeg -4.287139 -0.000000 0.000000
RightFoot -4.928558 -25.617746 7.443304
RightToeBase 12.018996 -0.000000 -0.000000
1383
root -5.502165 35.375087 -10.455078 -0.336503 -0.490955 -4.157410
Spine -4.737727 -3.382818 2.921095
Head -2.313286 -5.226212 -2.330528
LeftShoulder -20.109455 10.627416 -16.097372
LeftArm 19.955347 17.611760 -67.001189
LeftForeArm 13.832300 -0.000000 13.581658
LeftHand 2.999732 -0.000000 -9.415672
LeftHandThumb1 -26.253704 0.000000 33.147579
RightShoulder -6.589141 18.752462 -48.917549
RightArm 27.873419 -2.101985 -13.467207
RightForeArm -22.813433 0.000000 81.268504
RightHand 8.132100 -0.000000 8.532503
RightHandThumb1 -24.326973 -0.000000 -32.862282
LeftUpLeg 8.096705 12.709426 5.414857
LeftLeg -8.659589 -0.000000 0.000000
LeftFoot -12.978911 23.467705 -10.928349
LeftToeBase 21.451527 -0.000000 -0.000000
RightUpLeg 6.796468 -8.979271 0.762314
RightLeg -4.288841 -0.000000 0.000000
RightFoot -4.931670 -25.618126 7.500903
RightToeBase 11.939587 -0.000000 -0.000000
1384
root -5.503813 35.374114 -10.457450 -0.346340 -0.469462 -4.161482
Spine -4.708965 -3.417549 2.907196
Head -2.374534 -5.241930 -2.346535
LeftShoulder -20.100857 10.635134 -16.076454
LeftArm 19.940229 17.577772 -67.025465
LeftForeArm 13.695758 -0.000000 13.540698
LeftHand 2.981019 0.000000 -9.478976
LeftHandThumb1 -26.253704 0.000000 33.147579
RightShoulder -6.567865 18.690149 -48.843445
RightArm 28.166873 -2.438621 -13.489208
RightForeArm -22.736440 -0.000000 81.844682
RightHand 8.235169 -0.000000 8.642608
RightHandThumb1 -24.326973 -0.000000 -32.862282
LeftUpLeg 8.100809 12.690872 5.420918
LeftLeg -8.662935 -0.000000 0.000000
LeftFoot -12.971735 23.469755 -10.899429
LeftToeBase 21.465193 -0.000000 -0.000000
RightUpLeg 6.801494 -8.989709 0.769983
RightLeg -4.281088 -0.000000 0.000000
RightFoot -4.947504 -25.642667 7.447311
RightToeBase 12.029469 -0.000000 -0.000000
1385
root -5.505589 35.373289 -10.459340 -0.353547 -0.462931 -4.164267
Spine -4.680256 -3.443835 2.886829
Head -2.473134 -5.301605 -2.371883
LeftShoulder -20.100317 10.647548 -16.048786
LeftArm 19.932364 17.528611 -67.060218
LeftForeArm 13.558923 0.000000 13.499053
LeftHand 2.943098 -0.000000 -9.602171
LeftHandThumb1 -26.253704 0.000000 33.147579
RightShoulder -6.555358 18.576427 -48.734161
RightArm 28.512367 -2.812481 -13.729568
RightForeArm -22.663587 -0.000000 82.209570
RightHand 8.297107 -0.000000 8.279164
RightHandThumb1 -24.326973 -0.000000 -32.862282
LeftUpLeg 8.110532 12.692026 5.429135
LeftLeg -8.677332 -0.000000 0.000000
LeftFoot -12.965385 23.457728 -10.891006
LeftToeBase 21.462974 -0.000000 -0.000000
RightUpLeg 6.804104 -8.976993 0.776794
RightLeg -4.276455 -0.000000 0.000000
RightFoot -4.947420 -25.650012 7.472667
RightToeBase 11.970902 -0.000000 -0.000000
1386
root -5.506649 35.373293 -10.462000 -0.359361 -0.460418 -4.165582
Spine -4.648822 -3.447943 2.882350
Head -2.561720 -5.337698 -2.428700
LeftShoulder -20.090886 10.648533 -16.048915
LeftArm 19.932925 17.518256 -67.051151
LeftForeArm 13.439312 0.000000 13.483450
LeftHand 2.910864 -0.000000 -9.580388
LeftHandThumb1 -26.253704 0.000000 33.147579
RightShoulder -6.491371 18.532322 -48.738657
RightArm 28.634284 -3.117394 -13.509214
RightForeArm -22.966926 -0.000000 82.722046
RightHand 8.201185 -0.000000 8.138468
RightHandThumb1 -24.326973 -0.000000 -32.862282
LeftUpLeg 8.113786 12.693720 5.432711
LeftLeg -8.683414 -0.000000 0.000000
LeftFoot -12.958452 23.454617 -10.893821
LeftToeBase 21.478663 -0.000000 -0.000000
RightUpLeg 6.802955 -8.963190 0.780308
RightLeg -4.267011 -0.000000 0.000000
RightFoot -4.958377 -25.667365 7.443883
RightToeBase 12.041729 -0.000000 -0.000000
1387
root -5.508163 35.373577 -10.464976 -0.363231 -0.446447 -4.166002
Spine -4.620627 -3.463745 2.870907
Head -2.628037 -5.345982 -2.451182
LeftShoulder -20.090965 10.643541 -16.044321
LeftArm 19.943885 17.527739 -67.030783
LeftForeArm 13.365307 -0.000000 13.463435
LeftHand 2.872346 0.000000 -9.585723
LeftHandThumb1 -26.253704 0.000000 33.147579
RightShoulder -6.428385 18.488938 -48.686784
RightArm 28.802904 -3.399179 -13.499187
RightForeArm -23.004770 -0.000000 83.106322
RightHand 8.327858 -0.000000 8.183255
RightHandThumb1 -24.326973 -0.000000 -32.862282
LeftUpLeg 8.106322 12.672922 5.433635
LeftLeg -8.675825 -0.000000 0.000000
LeftFoot -12.948181 23.468583 -10.878508
LeftToeBase 21.457172 -0.000000 -0.000000
RightUpLeg 6.801608 -8.976321 0.782401
RightLeg -4.264656 -0.000000 0.000000
RightFoot -4.949692 -25.659340 7.475849
RightToeBase 11.943004 -0.000000 -0.000000
1388
root -5.509312 35.373925 -10.467455 -0.364531 -0.450206 -4.165149
Spine -4.596273 -3.461393 2.861030
Head -2.690771 -5.335385 -2.470250
LeftShoulder -20.097938 10.640249 -16.057552
LeftArm 19.961362 17.503664 -67.007627
LeftForeArm 13.340266 -0.000000 13.457690
LeftHand 2.886899 0.000000 -9.559377
LeftHandThumb1 -26.253704 0.000000 33.147579
RightShoulder -6.321390 18.464242 -48.678361
RightArm 28.835643 -3.710181 -13.320457
RightForeArm -23.606320 -0.000000 83.529912
RightHand 8.378652 -0.000000 7.925659
RightHandThumb1 -24.326973 -0.000000 -32.862282
LeftUpLeg 8.107751 12.691298 5.435922
LeftLeg -8.684048 -0.000000 0.000000
LeftFoot -12.930735 23.452312 -10.882085
LeftToeBase 21.450292 -0.000000 -0.000000
RightUpLeg 6.798372 -8.960036 0.784358
RightLeg -4.262217 -0.000000 0.000000
RightFoot -4.964638 -25.671787 7.446584
RightToeBase 12.031619 -0.000000 -0.000000
1389
root -5.510687 35.374538 -10.470365 -0.365596 -0.445585 -4.165273
Spine -4.563937 -3.460509 2.850915
Head -2.766952 -5.347452 -2.481183
LeftShoulder -20.119806 10.633341 -16.076425
LeftArm 20.001965 17.497742 -66.972998
LeftForeArm 13.297743 0.000000 13.446144
LeftHand 2.912979 -0.000000 -9.546684
LeftHandThumb1 -26.253704 0.000000 33.147579
RightShoulder -6.269247 18.405893 -48.659960
RightArm 28.913500 -3.926619 -13.208097
RightForeArm -24.104291 -0.000000 83.958473
RightHand 8.333058 -0.000000 8.168793
RightHandThumb1 -24.326973 -0.000000 -32.862282
LeftUpLeg 8.102657 12.704279 5.439034
LeftLeg -8.684148 -0.000000 0.000000
LeftFoot -12.931111 23.432077 -10.884878
LeftToeBase 21.475648 -0.000000 -0.000000
RightUpLeg 6.795052 -8.988976 0.785656
RightLeg -4.264670 -0.000000 0.000000
RightFoot -4.944648 -25.641731 7.486274
RightToeBase 11.953728 -0.000000 -0.000000
